<?xml version="1.0" encoding="utf-8"?>
<!-- Generator: Adobe Illustrator 15.1.0, SVG Export Plug-In . SVG Version: 6.00 Build 0)  -->
<!DOCTYPE svg PUBLIC "-//W3C//DTD SVG 1.1//EN" "http://www.w3.org/Graphics/SVG/1.1/DTD/svg11.dtd">
<svg version="1.1" id="レイヤー_1" xmlns="http://www.w3.org/2000/svg" xmlns:xlink="http://www.w3.org/1999/xlink" x="0px"
	 y="0px" width="803.175px" height="627.703px" viewBox="0 0 803.175 627.703" enable-background="new 0 0 803.175 627.703"
	 xml:space="preserve">
<g>
	<path fill="#FFFFFF" stroke="#231815" stroke-width="4" stroke-miterlimit="10" d="M683.409,248.251
		c-1.225,0.324-3.909,0.53-5.218-0.728c-1.473-1.417-1.502-4.339-1.502-4.339l11.422-67.954c0.294-0.879,0.449-1.766,0.449-2.662
		c0-27.285-137.739-49.404-307.646-49.404c-169.908,0-307.646,22.119-307.646,49.404c0,0.896,0.156,1.782,0.448,2.662
		c0,0,24.151,323.5,75.691,405.771c70.794,59.215,379.079,60.028,449.266-0.126c23.605-28.479,34.832-80.768,34.832-80.768
		l2.683-5.391l4.963-2.217C827.386,434.104,863.404,200.581,683.409,248.251z M646.502,466.654c-2.973,0.98-8.573-0.03-7.71-4.98
		c5.467-31.305,25.91-148.165,31.877-180.008c0.956-5.111,6.137-9.333,8.328-9.888C823.362,235.066,798.108,416.541,646.502,466.654
		z"/>
	<g>
		<g>
			<path fill="#FFFFFF" stroke="#231815" stroke-width="1.0049" stroke-miterlimit="10" d="M173.521,145.716
				c-42.688,6.165-68.585,14.249-68.585,23.101c0,3.169,3.328,6.242,9.545,9.161c8.051-6.124,28.603-11.708,58.237-16.32
				C172.843,156.223,173.101,150.9,173.521,145.716z"/>
			<path fill="#FFFFFF" stroke="#231815" stroke-width="1.0049" stroke-miterlimit="10" d="M656.895,168.817
				c0-9.37-29.008-17.883-76.25-24.165c0.373,5.297,0.573,10.738,0.627,16.307c33.942,5.184,56.319,11.626,62.14,18.693
				C652.15,176.241,656.895,172.601,656.895,168.817z"/>
		</g>
		<g>
			<path d="M581.271,160.959c0.041,4.38,0,8.827-0.169,13.379c-0.78,6.857-2.038,13.182-3.683,19.067
				c23.312-2.998,42.378-6.53,55.991-10.437c3.757-1.077,7.098-2.186,10-3.315c-2.167-2.63-6.624-5.175-13.116-7.599
				c-3.596-1.34-7.814-2.646-12.615-3.91C607.851,165.556,595.589,163.147,581.271,160.959z"/>
			<path d="M172.694,174.338c-0.091-4.308-0.068-8.522,0.024-12.68c-29.634,4.612-50.186,10.196-58.237,16.32
				c5.585,2.62,13.505,5.12,23.462,7.461c3.224,0.759,6.663,1.499,10.305,2.223c8.427,1.671,17.944,3.246,28.424,4.711
				C174.938,186.792,173.58,180.805,172.694,174.338z"/>
		</g>
	</g>
	<path stroke="#000000" stroke-miterlimit="10" d="M580.645,151.802C572.049,44.334,478.899,0.5,376.897,0.5
		c-102.214,0-193.529,45.254-203.376,152.239c-0.741,8.042-1.037,16.419-0.827,25.166c0.886,5.682,2.243,10.945,3.978,15.854
		c31.552,3.872,71.824,6.838,117.356,8.525c27.318,1.01,56.529,1.557,86.887,1.557c45.663,0,88.735-1.239,126.669-3.428
		c25.955-1.5,49.505-3.446,69.836-5.746c1.645-5.174,2.902-10.736,3.683-16.762C581.484,168.811,581.311,160.121,580.645,151.802z"
		/>
	<g>
		<ellipse fill="#FFFFFF" stroke="#231815" stroke-miterlimit="10" cx="294.204" cy="123.165" rx="50.585" ry="50.436"/>
		<path stroke="#231815" stroke-miterlimit="10" d="M294.205,88.17c-20.525,0-37.165,15.668-37.165,34.998
			c0,19.324,16.64,34.993,37.165,34.993c20.526,0,37.166-15.669,37.166-34.993C331.371,103.838,314.731,88.17,294.205,88.17z"/>
		<ellipse fill="#FFFFFF" stroke="#231815" stroke-miterlimit="10" cx="459.727" cy="123.165" rx="50.588" ry="50.436"/>
		<path stroke="#231815" stroke-miterlimit="10" d="M459.727,88.17c-20.526,0-37.165,15.668-37.165,34.998
			c0,19.324,16.639,34.993,37.165,34.993s37.166-15.669,37.166-34.993C496.893,103.838,480.253,88.17,459.727,88.17z"/>
	</g>
	<g>
		<g opacity="0.45">
			<path d="M614.296,197.602c0,15.335-14.798,23.823-33.17,22.921c-18.621-0.918-12.368-16.669-18.621-18.026
				c-5.257-1.14-14.819,1.013-14.819-4.895c0-15.335,14.91-20.583,33.306-20.583C599.386,177.02,614.296,182.267,614.296,197.602z"
				/>
			<path d="M583.765,221.401c-0.886,0-1.776-0.021-2.68-0.066c-12.485-0.616-14.357-7.712-15.725-12.895
				c-0.804-3.043-1.339-4.782-3.03-5.148c-1.455-0.316-3.266-0.367-5.185-0.42c-4.815-0.136-10.274-0.289-10.274-5.27
				c0-13.997,11.798-21.395,34.12-21.395c22.321,0,34.12,7.398,34.12,21.395C615.111,211.837,602.513,221.401,583.765,221.401z
				 M580.991,177.833c-14.822,0-32.489,3.43-32.489,19.769c0,3.163,3.441,3.497,8.689,3.644c1.907,0.055,3.884,0.109,5.486,0.457
				c2.75,0.596,3.483,3.379,4.261,6.324c1.308,4.958,2.936,11.127,14.227,11.685c0.875,0.042,1.74,0.064,2.6,0.064
				c17.772,0,29.715-8.91,29.715-22.173C613.479,181.263,595.813,177.833,580.991,177.833z"/>
			<path d="M143.167,195.977c0,15.332,14.797,23.822,33.169,22.917c18.624-0.915,12.369-16.669,18.624-18.022
				c5.254-1.141,14.815,1.013,14.815-4.895c0-15.339-14.909-20.586-33.303-20.586C158.077,175.391,143.167,180.638,143.167,195.977z
				"/>
			<path d="M173.692,219.772c-0.001,0-0.001,0-0.002,0c-18.744,0-31.338-9.563-31.338-23.795c0-14,11.798-21.399,34.12-21.399
				c22.32,0,34.119,7.399,34.119,21.399c0,4.979-5.458,5.133-10.273,5.269c-1.919,0.053-3.731,0.104-5.184,0.42
				c-1.691,0.365-2.228,2.104-3.031,5.146c-1.367,5.182-3.24,12.28-15.726,12.894C175.473,219.75,174.578,219.772,173.692,219.772z
				 M176.472,176.204c-14.822,0-32.489,3.43-32.489,19.773c0,13.259,11.938,22.169,29.707,22.169c0.001,0,0.001,0,0.002,0
				c0.859,0,1.727-0.021,2.603-0.065c11.293-0.554,12.921-6.725,14.23-11.683c0.777-2.945,1.51-5.727,4.261-6.322
				c1.602-0.347,3.575-0.403,5.484-0.457c5.25-0.146,8.689-0.48,8.689-3.643C208.959,179.634,191.292,176.204,176.472,176.204z"/>
		</g>
		<g>
			<g>
				<g>
					<g>
						<path d="M611.461,194.768c0,15.335-14.798,23.823-33.17,22.921c-18.621-0.918-12.368-16.669-18.621-18.026
							c-5.257-1.14-14.819,1.013-14.819-4.895c0-15.335,14.91-20.583,33.306-20.583
							C596.551,174.185,611.461,179.433,611.461,194.768z"/>
						<path fill="#B5B5B6" d="M580.93,218.566c-0.886,0-1.776-0.021-2.68-0.066c-12.485-0.616-14.357-7.712-15.725-12.895
							c-0.804-3.043-1.339-4.782-3.03-5.148c-1.455-0.316-3.266-0.367-5.185-0.42c-4.815-0.136-10.274-0.289-10.274-5.27
							c0-13.997,11.798-21.395,34.12-21.395c22.321,0,34.12,7.398,34.12,21.395C612.276,209.002,599.678,218.566,580.93,218.566z
							 M578.156,174.999c-14.822,0-32.489,3.43-32.489,19.769c0,3.163,3.441,3.497,8.689,3.644c1.907,0.055,3.884,0.109,5.486,0.457
							c2.75,0.596,3.483,3.379,4.261,6.324c1.308,4.958,2.936,11.127,14.227,11.685c0.875,0.042,1.74,0.064,2.6,0.064
							c17.772,0,29.715-8.91,29.715-22.173C610.645,178.428,592.978,174.999,578.156,174.999z"/>
					</g>
					<g>
						<g>
							<path d="M140.333,193.142c0,15.332,14.797,23.822,33.169,22.917c18.624-0.915,12.369-16.669,18.624-18.022
								c5.254-1.141,14.815,1.013,14.815-4.895c0-15.339-14.909-20.586-33.303-20.586
								C155.243,172.556,140.333,177.803,140.333,193.142z"/>
							<path fill="#B5B5B6" d="M170.858,216.938c-0.001,0-0.001,0-0.002,0c-18.744,0-31.338-9.563-31.338-23.795
								c0-14,11.798-21.399,34.12-21.399c22.32,0,34.119,7.399,34.119,21.399c0,4.979-5.458,5.133-10.273,5.269
								c-1.919,0.053-3.731,0.104-5.184,0.42c-1.691,0.365-2.228,2.104-3.031,5.146c-1.367,5.182-3.24,12.28-15.726,12.894
								C172.638,216.916,171.744,216.938,170.858,216.938z M173.638,173.369c-14.822,0-32.489,3.43-32.489,19.773
								c0,13.259,11.938,22.169,29.707,22.169c0.001,0,0.001,0,0.002,0c0.859,0,1.727-0.021,2.603-0.065
								c11.293-0.554,12.921-6.725,14.23-11.683c0.777-2.945,1.51-5.727,4.261-6.322c1.602-0.347,3.575-0.403,5.484-0.457
								c5.25-0.146,8.689-0.48,8.689-3.643C206.125,176.799,188.458,173.369,173.638,173.369z"/>
						</g>
					</g>
				</g>
			</g>
		</g>
	</g>
	<g>
		<path d="M292.986,288.27v-3.049h25.997v3.049h-4.587c-3.059,0-4.588,1.524-4.588,4.574v42.689
			c-0.127,10.292-1.179,16.931-3.154,19.916c-1.975,2.986-5.002,4.479-9.08,4.479c-2.039,0-4.078-0.255-6.117-0.763
			c-2.039-0.509-3.823-1.303-5.352-2.383c-1.53-1.08-1.785-3.081-0.765-6.003c3.058-2.033,5.352-1.524,6.881,1.524
			c1.529,3.05,3.313,4.575,5.352,4.575c2.04,0,3.313-0.764,3.823-2.288c0.51-1.524,0.765-7.877,0.765-19.059v-42.689
			c0-3.049-1.529-4.574-4.587-4.574H292.986z"/>
		<path d="M357.212,320.287l1.529,1.524c-10.194,2.033-17.076,3.811-20.644,5.336c-3.568,1.524-5.352,4.32-5.352,8.385
			c0,4.066,1.019,6.861,3.058,8.387c2.04,1.523,4.588,2.286,7.646,2.286c5.097,0,9.685-2.032,13.763-6.098l1.529,1.523
			c-6.117,5.083-11.723,7.624-16.82,7.624c-4.078,0-7.901-1.017-11.47-3.05c-3.568-2.032-5.352-5.082-5.352-9.147
			c0-5.083,2.549-8.894,7.646-11.436C337.843,323.082,345.998,321.304,357.212,320.287z M346.508,306.565
			c-2.039,0-4.078,0.253-6.117,0.762c-2.039,0.508-3.568,2.287-4.588,5.337c0,3.049-1.529,4.573-4.587,4.573
			c-3.059,0-4.588-1.017-4.588-3.049c0-2.033,1.02-3.813,3.058-5.337c2.039-1.524,4.588-2.795,7.646-3.812
			c3.058-1.017,6.117-1.524,9.175-1.524c4.078,0,7.901,0.762,11.469,2.287c3.568,1.524,5.352,4.319,5.352,8.386v25.919
			c0,2.032,0.51,3.303,1.529,3.812c1.02,0.508,2.549,0.254,4.588-0.763l1.529,1.524c-3.059,3.049-5.607,4.574-7.646,4.574
			c-5.097,0-7.646-3.05-7.646-9.147v-25.919c0-2.033-1.019-3.813-3.059-5.337C350.586,307.327,348.547,306.565,346.508,306.565z"/>
		<path d="M401.56,350.779l-19.88-41.165c-1.02-2.033-3.058-3.049-6.117-3.049h-1.529v-3.05h21.41v3.05h-1.529
			c-3.059,0-4.078,1.016-3.059,3.049l13.762,30.493l12.234-30.493c1.02-2.033,0.51-3.049-1.529-3.049h-3.059v-3.05h16.821v3.05
			h-1.529c-3.058,0-5.098,1.016-6.117,3.049l-16.821,41.165H401.56z"/>
		<path d="M464.258,320.287l1.528,1.524c-10.195,2.033-17.076,3.811-20.645,5.336c-3.568,1.524-5.352,4.32-5.352,8.385
			c0,4.066,1.019,6.861,3.058,8.387c2.04,1.523,4.588,2.286,7.646,2.286c5.097,0,9.685-2.032,13.764-6.098l1.528,1.523
			c-6.117,5.083-11.724,7.624-16.821,7.624c-4.077,0-7.901-1.017-11.47-3.05c-3.566-2.032-5.352-5.082-5.352-9.147
			c0-5.083,2.549-8.894,7.646-11.436C444.888,323.082,453.043,321.304,464.258,320.287z M453.553,306.565
			c-2.039,0-4.078,0.253-6.117,0.762c-2.039,0.508-3.567,2.287-4.588,5.337c0,3.049-1.528,4.573-4.588,4.573
			c-3.058,0-4.587-1.017-4.587-3.049c0-2.033,1.02-3.813,3.059-5.337c2.038-1.524,4.588-2.795,7.646-3.812
			c3.059-1.017,6.117-1.524,9.176-1.524c4.077,0,7.9,0.762,11.469,2.287c3.567,1.524,5.352,4.319,5.352,8.386v25.919
			c0,2.032,0.511,3.303,1.529,3.812c1.02,0.508,2.549,0.254,4.588-0.763l1.529,1.524c-3.059,3.049-5.607,4.574-7.646,4.574
			c-5.098,0-7.646-3.05-7.646-9.147v-25.919c0-2.033-1.019-3.813-3.058-5.337S455.591,306.565,453.553,306.565z"/>
	</g>
	<g>
		<path d="M338.862,408.716v-3.049c8.156,0,13.763-1.525,16.821-4.574v41.165c0,3.049,1.529,4.574,4.588,4.574h4.587v3.049h-25.996
			v-3.049h4.588c3.058,0,4.587-1.525,4.587-4.574v-30.493c0-2.033-1.529-3.049-4.587-3.049H338.862z M351.096,382.796
			c4.077,0,6.117,2.034,6.117,6.099c0,4.066-2.04,6.099-6.117,6.099c-4.078,0-6.117-2.032-6.117-6.099
			C344.979,384.83,347.018,382.796,351.096,382.796z"/>
		<path d="M367.917,408.716v-3.049c7.137,0,12.234-1.018,15.292-3.051v39.642c0,3.049,1.529,4.574,4.588,4.574h1.529v3.049h-21.41
			v-3.049h3.059c3.059,0,4.587-1.525,4.587-4.574v-30.493c0-2.033-1.529-3.049-4.587-3.049H367.917z M381.679,410.24
			c6.118-4.065,11.725-6.099,16.822-6.099c7.137,0,11.979,1.525,14.527,4.574s3.823,7.623,3.823,13.721v19.821
			c0,3.049,1.529,4.574,4.587,4.574h3.06v3.049h-21.409v-3.049h1.528c3.06,0,4.589-1.525,4.589-4.574v-19.821
			c0-7.113-1.275-11.435-3.823-12.958c-2.549-1.525-5.352-2.288-8.411-2.288c-3.058,0-8.156,2.033-15.293,6.1V410.24z"/>
	</g>
	<g>
		<path fill="#231815" d="M240.229,501.718h27.524l4.588-4.574l6.117,6.1l-1.529,1.523h-35.171L240.229,501.718z M255.521,503.243
			l6.117,3.049c-5.097,16.264-11.724,27.952-19.879,35.067l-1.529-1.525C247.366,530.686,252.463,518.489,255.521,503.243z
			 M270.813,477.323l6.117,6.1v1.524h-4.588c-5.097,1.017-14.782,2.032-29.055,3.05l-1.529-1.525
			C249.914,485.455,259.599,482.406,270.813,477.323z M257.051,484.947h6.116v73.183l-6.116,1.524V484.947z M261.638,516.965
			l1.529-1.524c5.097,2.032,8.666,4.573,10.704,7.623c2.039,3.049,2.039,5.336,0,6.859c-2.039,1.525-3.823,0.255-5.352-3.811
			C266.99,522.047,264.696,518.997,261.638,516.965z M293.751,474.274l9.175,3.049v1.526l-3.058,1.523c0,9.147,0,17.787,0,25.919
			c0,8.131-1.529,16.264-4.587,24.394c-3.059,8.133-11.214,17.787-24.467,28.969l-1.529-1.524
			c9.175-9.148,15.546-18.296,19.114-27.444c3.568-9.147,5.353-17.786,5.353-25.919
			C293.751,496.636,293.751,486.472,293.751,474.274z M284.575,497.144h1.53c1.019,9.148,1.019,15.501,0,19.06
			c-1.02,3.557-2.804,5.335-5.353,5.335s-3.823-1.017-3.823-3.049c0-2.033,1.274-4.575,3.823-7.624S284.575,503.243,284.575,497.144
			z M298.339,498.669h1.529c0,6.098,0.765,11.942,2.293,17.534c1.53,5.59,4.588,11.942,9.175,19.058
			c4.588,7.114,9.43,12.705,14.527,16.771c-4.078,2.033-6.117,4.574-6.117,7.623c-5.097-6.098-9.43-12.96-12.998-20.583
			c-3.568-7.623-5.862-14.229-6.881-19.819S298.339,506.8,298.339,498.669z M318.218,491.046l7.646,6.098v1.525h-4.587
			c-5.098,5.082-11.724,10.164-19.88,15.245l-1.529-1.523C307.004,506.292,313.121,499.177,318.218,491.046z"/>
		<path fill="#231815" d="M338.097,484.947h74.931l4.588-4.574l6.117,6.099l-1.53,1.525h-82.577L338.097,484.947z M338.097,501.718
			h71.874l4.588-4.574l6.116,6.1l-1.529,1.523h-79.519L338.097,501.718z M338.097,530.686h74.931l4.588-4.573l6.117,6.1l-1.53,1.522
			h-82.577L338.097,530.686z M373.269,532.212l7.646,1.522c-5.098,6.1-10.959,11.182-17.586,15.247
			c-6.626,4.063-14.527,6.606-23.703,7.624l-1.529-1.525c6.117-1.016,12.744-3.812,19.88-8.386
			C365.114,542.121,370.211,537.293,373.269,532.212z M354.918,491.046l9.175,3.049v1.525l-3.059,1.523v25.92l-6.117,1.524V491.046z
			 M357.977,518.489h45.876l4.588-4.575l6.117,6.1l-1.53,1.524h-55.051V518.489z M364.094,474.274l9.175,3.049v1.526l-3.058,1.523
			v12.196l-6.117,1.525V474.274z M374.798,492.569l9.175,3.051v1.523l-3.058,1.525v16.771l-6.117,1.524V492.569z M377.856,513.914
			v-3.049h19.88v3.049H377.856z M377.856,559.654v-39.641h6.117v38.116L377.856,559.654z M383.973,533.734l1.529-1.522
			c4.079,4.065,9.176,7.622,15.293,10.671c6.117,3.049,13.764,5.083,22.938,6.099c-3.059,2.034-4.588,4.575-4.588,7.624
			c-7.136-2.037-13.763-5.086-19.879-9.148C393.149,543.391,388.052,538.818,383.973,533.734z M387.033,474.274l9.175,3.049v1.526
			l-3.058,1.523v12.196l-6.117,1.525V474.274z M394.678,492.569l9.175,3.051v1.523l-3.059,1.525v15.245l-6.117,1.526V492.569z"/>
		<path fill="#231815" d="M446.671,477.323l7.646,4.575l-1.529,1.524v19.82c0,10.164-0.765,19.313-2.293,27.442
			c-1.529,8.133-5.862,17.787-12.999,28.969l-1.528-1.524c5.097-12.198,8.155-22.107,9.175-29.73s1.529-16.518,1.529-26.682V477.323
			z M465.021,529.162l9.176,6.099v1.524h-3.06c-6.116,8.131-13.253,14.734-21.408,19.82l-1.529-1.525
			C454.316,549.998,459.925,541.359,465.021,529.162z M449.729,481.898h53.521l6.117-6.098l9.176,7.622l-1.53,1.524h-67.284V481.898
			z M461.963,492.569l7.646,4.574l-1.528,1.525v27.443l-6.117,1.524V492.569z M465.021,497.144h35.171l4.588-4.574l7.646,6.1v1.525
			l-4.587,4.572v21.346l-6.117,1.524v-27.442h-36.7V497.144z M465.021,509.341h39.759v3.05h-39.759V509.341z M465.021,521.538
			h39.759v3.05h-39.759V521.538z M481.843,523.063h6.116v27.442c0,6.1-3.058,9.148-9.176,9.148c0-4.066-2.548-6.098-7.646-6.098
			l-1.529-1.525h10.704c1.021,0,1.53-1.016,1.53-3.05V523.063z M481.843,484.947l9.175,3.05v1.523h-1.529
			c-2.038,3.049-4.587,6.1-7.646,9.148h-1.53C481.333,492.569,481.843,487.997,481.843,484.947z M497.134,530.686l1.53-1.523
			c10.193,6.099,16.566,11.18,19.114,15.246c2.549,4.064,2.549,7.111,0,9.148c-2.548,2.031-5.353,0-8.41-6.1
			C506.309,541.359,502.231,535.768,497.134,530.686z"/>
	</g>
</g>
</svg>
